<svg width="174" height="26" viewBox="0 0 174 26" fill="none" xmlns="http://www.w3.org/2000/svg">
<path d="M40.6313 18.2315L31.7124 2.74693C29.7659 -0.477805 24.9725 -0.506857 23.0841 2.89218L13.7004 18.9868C11.9573 21.9501 14.1071 25.6396 17.6223 25.6396H36.4188C39.9631 25.6687 42.6068 21.8339 40.6313 18.2315Z" fill="#003087"/>
<path d="M27.7614 19.4516L27.2093 18.4929C26.6864 17.5923 25.5535 15.6749 25.5535 15.6749L18.0001 2.54359C16.0536 -0.361578 11.4054 -0.623046 9.45891 3.06651L0.656177 18.2896C-1.17408 21.4852 1.00488 25.6396 4.9559 25.6687H23.636H31.5962H36.3317C31.5091 25.6977 29.9694 23.1702 27.7614 19.4516Z" fill="#1877F2"/>
<path d="M27.7614 19.3935L27.2093 18.4348C26.6863 17.5342 25.5534 15.6168 25.5534 15.6168L20.6727 7.01752L13.6713 18.9577C11.9282 21.921 14.078 25.6106 17.5933 25.6106H23.6069H31.567H36.3316C31.48 25.6106 29.9693 23.1412 27.7614 19.3935Z" fill="url(#paint0_linear_12799_55754)"/>
<path d="M156.743 6.97181C158.05 5.75164 160.345 5.1706 163.686 5.1706H171.501V0.725708H162.263C160.055 0.725708 158.195 0.958128 156.743 1.42295C155.319 1.88778 154.07 2.61406 152.995 3.63087C151.862 4.73483 150.961 6.10025 150.322 7.72714C149.683 9.38309 149.364 11.1843 149.364 13.0727C149.364 14.8739 149.683 16.617 150.322 18.2148C150.961 19.8126 151.862 21.2071 152.995 22.3111C154.041 23.3279 155.29 24.0542 156.685 24.519C158.108 24.9838 159.997 25.2162 162.263 25.2162H171.501V20.8294H163.686C161.914 20.8294 160.694 20.7713 159.996 20.6261C159.27 20.4808 158.602 20.2484 158.05 19.8998C156.946 19.2025 156.104 18.3019 155.552 17.1689C155.029 16.065 154.767 14.6705 154.767 13.0436C154.767 10.2547 155.435 8.19198 156.743 6.97181Z" fill="#05152F"/>
<path d="M88.7327 25.2743H110.521V20.9747H94.0491V14.8448H108.43V10.7776H94.0491V5.08346H110.521V0.754761H88.7327V25.2743Z" fill="#05152F"/>
<path d="M115.954 0.754761L126.18 13.0146L115.954 25.2743H122.549L130.596 15.5711V10.4871L122.549 0.754761H115.954Z" fill="#05152F"/>
<path d="M140.706 0.754761L132.659 10.4871V15.5711L140.706 25.2743H147.301L137.075 13.0146L147.301 0.754761H140.706Z" fill="#05152F"/>
<path d="M67.3798 12.8403L57.5894 0.754761H52.5344V25.2743H57.8508V8.91828L66.3339 19.0864H68.3966L76.8796 8.83113V25.2743H82.1962V0.754761H77.1992L67.3798 12.8403Z" fill="#05152F"/>
<defs>
<linearGradient id="paint0_linear_12799_55754" x1="11.173" y1="13.5622" x2="32.8765" y2="21.5823" gradientUnits="userSpaceOnUse">
<stop stop-color="#003087" stop-opacity="0"/>
<stop offset="1" stop-color="#003087"/>
</linearGradient>
</defs>
</svg>
